<?xml version="1.0" encoding="UTF-8" standalone="no"?>
<!-- Created with Inkscape (http://www.inkscape.org/) -->

<svg
   width="81.185112mm"
   height="106.05584mm"
   viewBox="0 0 81.185112 106.05584"
   version="1.1"
   id="svg5"
   xml:space="preserve"
   inkscape:export-filename="logo.svg"
   inkscape:export-xdpi="96"
   inkscape:export-ydpi="96"
   inkscape:version="1.2.2 (732a01da63, 2022-12-09)"
   sodipodi:docname="drawing.svg"
   xmlns:inkscape="http://www.inkscape.org/namespaces/inkscape"
   xmlns:sodipodi="http://sodipodi.sourceforge.net/DTD/sodipodi-0.dtd"
   xmlns:xlink="http://www.w3.org/1999/xlink"
   xmlns="http://www.w3.org/2000/svg"
   xmlns:svg="http://www.w3.org/2000/svg"><sodipodi:namedview
     id="namedview7"
     pagecolor="#ffffff"
     bordercolor="#000000"
     borderopacity="0.25"
     inkscape:showpageshadow="2"
     inkscape:pageopacity="0.0"
     inkscape:pagecheckerboard="0"
     inkscape:deskcolor="#d1d1d1"
     inkscape:document-units="mm"
     showgrid="false"
     inkscape:zoom="0.5946522"
     inkscape:cx="12.612414"
     inkscape:cy="446.47947"
     inkscape:window-width="1920"
     inkscape:window-height="1121"
     inkscape:window-x="-9"
     inkscape:window-y="-9"
     inkscape:window-maximized="1"
     inkscape:current-layer="layer2" /><defs
     id="defs2"><linearGradient
       inkscape:collect="always"
       id="linearGradient1758"><stop
         style="stop-color:#7fff2a;stop-opacity:1;"
         offset="0"
         id="stop1754" /><stop
         style="stop-color:#aaffcc;stop-opacity:1"
         offset="1"
         id="stop1756" /></linearGradient><linearGradient
       inkscape:collect="always"
       xlink:href="#linearGradient1758"
       id="linearGradient1760"
       x1="70.474579"
       y1="147.87076"
       x2="103.19492"
       y2="83.059319"
       gradientUnits="userSpaceOnUse" /></defs><g
     inkscape:label="Layer 1"
     inkscape:groupmode="layer"
     id="layer1"
     transform="translate(-57.529657,-78.511236)"><circle
       style="fill:url(#linearGradient1760);fill-opacity:1;fill-rule:evenodd;stroke-width:0.264583"
       id="path626"
       cx="98.108818"
       cy="131.47916"
       r="38.487133"
       inkscape:export-filename="logo.svg"
       inkscape:export-xdpi="96"
       inkscape:export-ydpi="96" /><path
       style="fill:#000000;stroke-width:0.0846667"
       d="m 77.798754,127.27785 c -11.157445,-0.65549 -18.562839,-4.1589 -20.07652,-9.49798 -0.168977,-0.59602 -0.196818,-0.8811 -0.192099,-1.96704 0.0048,-1.10378 0.03527,-1.37905 0.232784,-2.10316 1.348861,-4.94494 7.041282,-10.13306 15.675502,-14.286794 8.835032,-4.25034 19.97246,-6.98573 30.691669,-7.53798 1.89737,-0.0977 7.00942,-0.0488 8.84767,0.0847 0.46567,0.0338 0.86082,0.0515 0.87812,0.0394 0.0173,-0.0122 -0.0641,-0.18577 -0.18086,-0.38579 -0.11677,-0.20001 -0.32621,-0.5732 -0.46542,-0.82932 -0.13921,-0.25612 -0.50555,-0.92287 -0.81408,-1.48167 l -0.56097,-1.016 0.3176,-0.0586 c 0.17469,-0.0322 0.54867,-0.0608 0.83108,-0.0635 l 0.51346,-0.005 1.64096,1.78771 1.64097,1.78771 0.4279,-0.0492 c 0.96954,-0.11142 3.82938,-0.39572 5.25171,-0.52209 0.83699,-0.0744 1.53602,-0.14942 1.55339,-0.16679 0.0174,-0.0174 -0.72056,-1.39631 -1.63986,-3.06431 -3.07631,-5.58175 -4.3292,-7.85344 -4.72659,-8.56998 -0.21695,-0.39119 -0.38432,-0.71943 -0.37193,-0.72943 0.0124,-0.01 0.31472,-0.0437 0.67186,-0.0748 l 0.64935,-0.0567 2.31399,2.50715 2.31399,2.50715 1.16416,-0.0597 1.16416,-0.0597 v 0.38198 c 0,0.45431 -0.0604,0.48348 -1.00415,0.48523 l -0.62313,10e-4 0.79247,0.86113 c 0.43586,0.47362 1.05918,1.13484 1.38514,1.46938 l 0.59267,0.60824 1.122,-0.0512 c 1.00028,-0.0456 1.12197,-0.0363 1.12183,0.0864 -9e-5,0.0757 0.0237,0.25665 0.0528,0.40217 l 0.0529,0.26458 -0.49742,0.005 c -0.27357,0.003 -0.63983,0.0313 -0.8139,0.0635 l -0.31648,0.0586 0.68842,0.762 c 0.37864,0.4191 0.93422,1.01917 1.2346,1.3335 l 0.54617,0.5715 h 2.00935 c 2.8318,0 4.57652,0.20967 5.21257,0.62643 0.28299,0.18543 0.35344,0.50328 0.17268,0.77915 -0.40547,0.61884 -2.84149,1.13772 -6.35216,1.35304 l -0.93133,0.0571 -0.889,1.14466 c -0.48895,0.62956 -1.00153,1.29748 -1.13906,1.48426 l -0.25007,0.33961 0.82157,-0.049 0.82156,-0.049 v 0.40367 0.40366 l -1.16012,0.0582 c -0.63806,0.032 -1.16604,0.0664 -1.17327,0.0764 -0.007,0.01 -0.53292,0.69117 -1.16821,1.51373 -0.63529,0.82256 -1.15507,1.522804 -1.15507,1.556084 0,0.0333 0.3429,0.0337 0.762,9.2e-4 0.71943,-0.0563 0.762,-0.0504 0.762,0.10549 0,0.0908 0.0238,0.28417 0.0529,0.42969 l 0.0529,0.26459 -0.75142,7.6e-4 c -0.41327,4.2e-4 -0.95014,0.0246 -1.19301,0.0538 l -0.44161,0.0531 -2.04626,2.63438 -2.04625,2.63439 -0.67913,0.0644 c -0.37351,0.0354 -0.69308,0.0505 -0.71014,0.0334 -0.026,-0.026 1.49198,-3.46584 5.0964,-11.549064 l 0.6135,-1.37583 h -2.838 c -1.58938,0 -3.26147,0.0441 -3.80048,0.10032 -0.8769,0.0914 -0.97473,0.11903 -1.10029,0.31066 -0.0758,0.11568 -0.62713,0.83436 -1.22518,1.59706 -0.59805,0.76271 -1.13612,1.45634 -1.1957,1.5414 -0.0872,0.12448 -0.27714,0.16675 -0.97303,0.21656 l -0.8647,0.0619 0.67122,-1.49751 c 0.36917,-0.82362 0.69203,-1.56306 0.71746,-1.6432 0.0417,-0.13149 -0.16628,-0.11427 -2.13431,0.17668 -8.75449,1.54341 -15.368884,2.75528 -23.129998,6.051244 -8.470772,3.62447 -14.406785,8.55576 -17.125451,14.2268 -0.720705,1.50335 -1.106612,2.75704 -1.388896,4.51207 l -0.06128,0.381 -0.232327,-0.71966 c -0.540511,-1.67431 -0.706441,-3.43384 -0.469429,-4.97782 0.844688,-5.5026 6.220553,-10.26944 15.969813,-14.160611 8.913641,-3.375173 18.780108,-5.455923 28.113168,-6.141863 l 0.80817,-0.0557 0.18987,-0.46516 c 0.18819,-0.46103 0.18846,-0.46789 0.0306,-0.77284 -0.15499,-0.29938 -0.17392,-0.30843 -0.70171,-0.33542 -0.68332,-0.035 -3.45862,0.12314 -5.07208,0.28893 -12.691194,1.55201 -27.712106,5.55199 -37.076401,13.309654 -0.788083,0.76656 -2.49984,2.69617 -2.994823,3.18803 -10.561079,11.62728 4.093157,16.24806 13.52822,17.43961 1.948058,0.22959 3.750778,0.32359 6.392333,0.33331 2.448142,0.009 2.536072,0.0146 1.691952,0.10836 -4.43356,0.49223 -8.671191,0.64865 -12.105952,0.44687 z"
       id="path476"
       sodipodi:nodetypes="ssscscscsssccccccscssssccccccsccssccssccccsscsssscsscccccscssssscsscccscscscsssscssccsscsscccsscccccscss" /><path
       style="fill:#000000;stroke-width:0.0846667"
       d="m 118.44568,135.80046 c 11.15745,0.65549 18.56284,4.1589 20.07652,9.49798 0.16898,0.59602 0.19682,0.8811 0.1921,1.96704 -0.005,1.10378 -0.0353,1.37905 -0.23278,2.10316 -1.34886,4.94494 -7.04128,10.13307 -15.6755,14.2868 -8.83503,4.25034 -19.97246,6.98573 -30.691677,7.53798 -1.89737,0.0977 -7.00942,0.0488 -8.84767,-0.0847 -0.46567,-0.0338 -0.86082,-0.0515 -0.87812,-0.0394 -0.0173,0.0122 0.0641,0.18577 0.18086,0.38579 0.11677,0.20001 0.32621,0.5732 0.46542,0.82932 0.13921,0.25612 0.50555,0.92287 0.81408,1.48167 l 0.56097,1.016 -0.3176,0.0586 c -0.17469,0.0322 -0.54867,0.0608 -0.83108,0.0635 l -0.51346,0.005 -1.64096,-1.78771 -1.64097,-1.78771 -0.4279,0.0492 c -0.96954,0.11142 -3.82938,0.39572 -5.25171,0.52209 -0.83699,0.0744 -1.53602,0.14942 -1.55339,0.16679 -0.0174,0.0174 0.72056,1.39631 1.63986,3.06431 3.07631,5.58175 4.3292,7.85344 4.72659,8.56998 0.21695,0.39119 0.38432,0.71943 0.37193,0.72943 -0.0124,0.01 -0.31472,0.0437 -0.67186,0.0748 l -0.64935,0.0567 -2.31399,-2.50715 -2.31399,-2.50715 -1.16416,0.0597 -1.16416,0.0597 v -0.38198 c 0,-0.45431 0.0604,-0.48348 1.00415,-0.48523 l 0.62313,-0.001 -0.79247,-0.86113 c -0.43586,-0.47362 -1.05918,-1.13484 -1.38514,-1.46938 l -0.59267,-0.60824 -1.122,0.0512 c -1.00028,0.0456 -1.12197,0.0363 -1.12183,-0.0864 9e-5,-0.0757 -0.0237,-0.25665 -0.0528,-0.40217 l -0.0529,-0.26458 0.49742,-0.005 c 0.27357,-0.003 0.63983,-0.0313 0.8139,-0.0635 l 0.31648,-0.0586 -0.68842,-0.762 c -0.37864,-0.4191 -0.93422,-1.01917 -1.2346,-1.3335 l -0.54617,-0.5715 h -2.00935 c -2.8318,0 -4.57652,-0.20967 -5.21257,-0.62643 -0.28299,-0.18543 -0.35344,-0.50328 -0.17268,-0.77915 0.40547,-0.61884 2.84149,-1.13772 6.35216,-1.35304 l 0.93133,-0.0571 0.889,-1.14466 c 0.48895,-0.62956 1.00153,-1.29748 1.13906,-1.48426 l 0.25007,-0.33961 -0.82157,0.049 -0.82156,0.049 v -0.40367 -0.40366 l 1.16012,-0.0582 c 0.63806,-0.032 1.16604,-0.0664 1.17327,-0.0764 0.007,-0.01 0.53292,-0.69117 1.16821,-1.51373 0.63529,-0.82256 1.15507,-1.5228 1.15507,-1.55608 0,-0.0333 -0.3429,-0.0337 -0.762,-9.2e-4 -0.71943,0.0563 -0.762,0.0504 -0.762,-0.10549 0,-0.0908 -0.0238,-0.28417 -0.0529,-0.42969 l -0.0529,-0.26459 0.75142,-7.6e-4 c 0.41327,-4.2e-4 0.95014,-0.0246 1.19301,-0.0538 l 0.44161,-0.0531 2.04626,-2.63438 2.04625,-2.63439 0.67913,-0.0644 c 0.37351,-0.0354 0.69308,-0.0505 0.71014,-0.0334 0.026,0.026 -1.49198,3.46584 -5.0964,11.54906 l -0.6135,1.37583 h 2.838 c 1.58938,0 3.26147,-0.0441 3.80048,-0.10032 0.8769,-0.0914 0.97473,-0.11903 1.10029,-0.31066 0.0758,-0.11568 0.62713,-0.83436 1.22518,-1.59706 0.59805,-0.76271 1.13612,-1.45634 1.1957,-1.5414 0.0872,-0.12448 0.27714,-0.16675 0.97303,-0.21656 l 0.8647,-0.0619 -0.67122,1.49751 c -0.36917,0.82362 -0.69203,1.56306 -0.71746,1.6432 -0.0417,0.13149 0.16628,0.11427 2.13431,-0.17668 8.75449,-1.54341 15.368887,-2.75528 23.130007,-6.05124 8.47077,-3.62447 14.40678,-8.55577 17.12545,-14.22681 0.7207,-1.50335 1.10661,-2.75704 1.38889,-4.51207 l 0.0613,-0.381 0.23233,0.71966 c 0.54051,1.67431 0.70644,3.43384 0.46943,4.97782 -0.84469,5.5026 -6.22055,10.26945 -15.96981,14.16062 -8.91364,3.37517 -18.780117,5.45592 -28.113177,6.14186 l -0.80817,0.0557 -0.18987,0.46516 c -0.18819,0.46103 -0.18846,0.46789 -0.0306,0.77284 0.15499,0.29938 0.17392,0.30843 0.70171,0.33542 0.68332,0.035 3.45862,-0.12314 5.07208,-0.28893 12.691197,-1.55201 27.712107,-5.55199 37.076407,-13.30965 0.78808,-0.76656 2.49984,-2.69618 2.99482,-3.18804 10.56108,-11.62728 -4.09316,-16.24806 -13.52822,-17.43961 -1.94806,-0.22959 -3.75078,-0.32359 -6.39233,-0.33331 -2.44814,-0.009 -2.53607,-0.0146 -1.69195,-0.10836 4.43356,-0.49223 8.67119,-0.64865 12.10595,-0.44687 z"
       id="path476-0"
       sodipodi:nodetypes="ssscscscsssccccccscssssccccccsccssccssccccsscsssscsscccccscssssscsscccscscscsssscssccsscsscccsscccccscss" /></g></svg>
